<svg width="35" height="35" viewBox="0 0 35 35" fill="none" xmlns="http://www.w3.org/2000/svg">
<path d="M4.36328 16.8467C4.36328 15.0733 4.71328 13.37 5.40161 11.7483C6.08995 10.1267 7.03495 8.73835 8.20162 7.56001C9.36828 6.38168 10.7683 5.44835 12.3899 4.76001C14.0116 4.07168 15.7033 3.72168 17.4883 3.72168C19.2733 3.72168 20.965 4.07168 22.5866 4.76001C24.2083 5.44835 25.6083 6.39335 26.7866 7.56001C27.9649 8.72668 28.8983 10.1267 29.5866 11.7483C30.275 13.37 30.6249 15.0617 30.6249 16.8467C30.6249 18.6317 30.275 20.3233 29.5866 21.945C28.8983 23.5667 27.9533 24.9667 26.7866 26.145C25.6199 27.3233 24.22 28.2567 22.5866 28.945C20.9533 29.6333 19.2616 29.9833 17.4883 29.9833C15.7149 29.9833 14.0116 29.6333 12.3899 28.945C10.7683 28.2567 9.37995 27.3117 8.20162 26.145C7.02328 24.9783 6.08995 23.5783 5.40161 21.945C4.71328 20.3117 4.36328 18.6317 4.36328 16.8467ZM5.76328 16.8467C5.76328 18.445 6.07828 19.9617 6.69661 21.4083C7.31495 22.855 8.15495 24.1033 9.20495 25.1533C10.2549 26.2033 11.5033 27.0317 12.9499 27.6617C14.3966 28.2917 15.9133 28.595 17.4999 28.595H17.9433C18.7249 25.69 19.1216 21.7817 19.1216 16.8583C19.1216 12.4017 18.7249 8.49335 17.9199 5.13335H17.4883C15.9016 5.13335 14.3849 5.44835 12.9383 6.06668C11.4916 6.68501 10.2549 7.51335 9.20495 8.56335C8.15495 9.61335 7.32661 10.8617 6.69661 12.3083C6.06661 13.755 5.76328 15.2717 5.76328 16.8467Z" fill="#F2F2F2"/>
</svg>
